<svg version="1.1" preserveAspectRatio="none" xmlns="http://www.w3.org/2000/svg" width="500" height="500" viewBox="0 0 500 500"><rect width="100%" height="100%" fill="#012B28" fill-opacity="1"/><svg viewBox="279.8999 199.3528 430.4312 186.2857" width="333" height="144.1185910779702" x="83.5px" y="177.9407px" xmlns="http://www.w3.org/2000/svg" xmlns:xlink="http://www.w3.org/1999/xlink" preserveAspectRatio="none"><defs></defs><style>.companyName {fill:#EBB42C;fill-opacity:1;}.icon2 {fill:#E7240E;fill-opacity:1;}.icon3 {fill:#B47049;fill-opacity:1;}.icon3-str {stroke:#B47049;stroke-opacity:1;}</style><g opacity="1" transform="rotate(0 279.8999 363.6385)">
<svg width="430.4312" height="22" x="279.8999" y="363.6385" version="1.1" preserveAspectRatio="none" viewBox="4.8 -28.48 566.6 28.96">
  <g transform="matrix(1 0 0 1 0 0)" class="companyName"><path id="id-D6z1nYkh14" d="M22.88 0L4.80 0L4.80-28L8.44-28L8.44-2.20L22.88-2.20L22.88 0Z M46.64-8.24L60.44-8.24L64.28 0L68.16 0L55.12-28L53.12-28L41.28 0L43.12 0L46.64-8.24ZM53.32-23.52L59.60-10.04L47.40-10.04L53.16-23.52L53.32-23.52Z M90.16-28L90.16 0L93.80 0L93.80-9.84L98.32-14.68L108.96 0L113.12 0L100.64-17.16L110.80-28L108.80-28L93.80-12.24L93.80-28L90.16-28Z M153.20-28L135.12-28L135.12 0L153.20 0L153.20-2.20L138.76-2.20L138.76-13.92L151.16-13.92L151.16-15.76L138.76-15.76L138.76-25.80L153.20-25.80L153.20-28Z M208.84 0L208.84-11.68Q209.88-11.40 211.08-11.22Q212.28-11.04 213.72-11.04L213.72-11.04Q216.16-11.04 218.04-11.72Q219.92-12.40 221.18-13.58Q222.44-14.76 223.08-16.30Q223.72-17.84 223.72-19.60L223.72-19.60Q223.72-21.28 223.16-22.82Q222.60-24.36 221.46-25.50Q220.32-26.64 218.60-27.32Q216.88-28 214.56-28L214.56-28L205.20-28L205.20 0L208.84 0ZM208.84-13.32L208.84-26.24L213.04-26.24Q214.72-26.24 216-25.64Q217.28-25.04 218.12-24.06Q218.96-23.08 219.38-21.86Q219.80-20.64 219.80-19.44L219.80-19.44Q219.80-18.28 219.42-17.10Q219.04-15.92 218.20-14.96Q217.36-14 216.08-13.40Q214.80-12.80 213-12.80L213-12.80Q211.76-12.80 210.72-12.90Q209.68-13 208.84-13.32L208.84-13.32Z M242.92-14L242.92-14Q242.92-11.76 243.78-9.22Q244.64-6.68 246.48-4.52Q248.32-2.36 251.16-0.94Q254.00 0.48 257.96 0.48L257.96 0.48Q260.64 0.48 262.82-0.18Q265-0.84 266.74-1.96Q268.48-3.08 269.76-4.54Q271.04-6 271.86-7.62Q272.68-9.24 273.10-10.88Q273.52-12.52 273.52-14L273.52-14Q273.52-16.24 272.60-18.78Q271.68-21.32 269.76-23.48Q267.84-25.64 264.90-27.06Q261.96-28.48 257.96-28.48L257.96-28.48Q254.00-28.48 251.16-27.08Q248.32-25.68 246.48-23.54Q244.64-21.40 243.78-18.84Q242.92-16.28 242.92-14ZM246.84-14L246.84-14Q246.84-16.80 247.70-19.14Q248.56-21.48 250.06-23.16Q251.56-24.84 253.60-25.78Q255.64-26.72 258.04-26.72L258.04-26.72Q260.40-26.72 262.50-25.78Q264.60-24.84 266.18-23.16Q267.76-21.48 268.68-19.14Q269.60-16.80 269.60-14L269.60-14Q269.60-11.20 268.68-8.86Q267.76-6.52 266.18-4.84Q264.60-3.16 262.50-2.22Q260.40-1.28 258.04-1.28L258.04-1.28Q255.64-1.28 253.60-2.22Q251.56-3.16 250.06-4.84Q248.56-6.52 247.70-8.86Q246.84-11.20 246.84-14Z M314.40 0L296.32 0L296.32-28L299.96-28L299.96-2.20L314.40-2.20L314.40 0Z M354.48 0L336.40 0L336.40-28L340.04-28L340.04-2.20L354.48-2.20L354.48 0Z M378.52-28L374.88-28L374.88-10.80Q374.88-9.16 375.20-7.18Q375.52-5.20 376.72-3.50Q377.92-1.80 380.28-0.66Q382.64 0.48 386.72 0.48L386.72 0.48Q389.28 0.48 391.26-0.32Q393.24-1.12 394.58-2.52Q395.92-3.92 396.60-5.78Q397.28-7.64 397.28-9.76L397.28-9.76L397.28-28L395.52-28L395.52-11.08Q395.52-10.20 395.48-9.30Q395.44-8.40 395.24-7.50Q395.04-6.60 394.62-5.72Q394.20-4.84 393.40-3.96L393.40-3.96Q391.96-2.40 390.16-1.84Q388.36-1.28 386.40-1.28L386.40-1.28Q384.72-1.28 383.42-1.80Q382.12-2.32 380.96-3.36L380.96-3.36Q380.04-4.16 379.56-4.96Q379.08-5.76 378.84-6.54Q378.60-7.32 378.56-8.12Q378.52-8.92 378.52-9.72L378.52-9.72L378.52-28Z M428 0L431.64 0L431.64-25.80L442.36-25.80L442.36-28L417.28-28L417.28-25.80L428-25.80L428 0Z M469.20-28L465.56-28L465.56 0L469.20 0L469.20-28Z M493.60-14L493.60-14Q493.60-11.76 494.46-9.22Q495.32-6.68 497.16-4.52Q499-2.36 501.84-0.94Q504.68 0.48 508.64 0.48L508.64 0.48Q511.32 0.48 513.50-0.18Q515.68-0.84 517.42-1.96Q519.16-3.08 520.44-4.54Q521.72-6 522.54-7.62Q523.36-9.24 523.78-10.88Q524.20-12.52 524.20-14L524.20-14Q524.20-16.24 523.28-18.78Q522.36-21.32 520.44-23.48Q518.52-25.64 515.58-27.06Q512.64-28.48 508.64-28.48L508.64-28.48Q504.68-28.48 501.84-27.08Q499-25.68 497.16-23.54Q495.32-21.40 494.46-18.84Q493.60-16.28 493.60-14ZM497.52-14L497.52-14Q497.52-16.80 498.38-19.14Q499.24-21.48 500.74-23.16Q502.24-24.84 504.28-25.78Q506.32-26.72 508.72-26.72L508.72-26.72Q511.08-26.72 513.18-25.78Q515.28-24.84 516.86-23.16Q518.44-21.48 519.36-19.14Q520.28-16.80 520.28-14L520.28-14Q520.28-11.20 519.36-8.86Q518.44-6.52 516.86-4.84Q515.28-3.16 513.18-2.22Q511.08-1.28 508.72-1.28L508.72-1.28Q506.32-1.28 504.28-2.22Q502.24-3.16 500.74-4.84Q499.24-6.52 498.38-8.86Q497.52-11.20 497.52-14Z M571.40-28L569.56-28L569.56-6.60L569.40-6.60L547.20-28.48L547-28.48L547 0L548.84 0L548.84-21.40L549-21.40L571.20 0.48L571.40 0.48L571.40-28Z"/></g>
</svg>
</g><g opacity="1" transform="rotate(0 445.1155 199.3528)">
<svg width="100" height="104.2857" x="445.1155" y="199.3528" version="1.1" preserveAspectRatio="none" viewBox="16 16 70 73">
  <g transform="matrix(1 0 0 1 0 0)" class="companyName"><g><g><path d="M34.99994,24H26l-8.19165,8.78979C16.63892,34.21912,16,36.00903,16,37.85571V48h29V37.85571    c0-1.84668-0.63892-3.63672-1.80835-5.06592L34.99994,24z"></path><path d="M16,81c0,4.41821,3.58173,8,8,8h13c4.41827,0,8-3.58179,8-8V68H16V81z"></path><rect x="17" y="52" width="27" height="4"></rect><rect x="17" y="60" width="27" height="4"></rect><rect x="26" y="16" width="9" height="5"></rect><rect x="58" y="28" width="9" height="5"></rect><path d="M83.6568,48.65674L73.34277,38.34302C71.84253,36.84277,69.80768,36,67.68597,36H58    c-3.31372,0-6,2.68628-6,6v39c0,4.41821,3.2677,8,7.68597,8H78c4.41827,0,8-3.58179,8-8V54.31372    C86,52.19189,85.1571,50.1571,83.6568,48.65674z M79.41406,55.41406C79.02393,55.80469,78.51172,56,78,56    s-1.02393-0.19531-1.41406-0.58594l-9-9c-0.78125-0.78125-0.78125-2.04688,0-2.82812c0.78027-0.78125,2.04785-0.78125,2.82812,0    l9,9C80.19531,53.36719,80.19531,54.63281,79.41406,55.41406z"></path></g></g></g>
</svg>
</g></svg></svg>